<?xml version="1.0" encoding="UTF-8"?> <svg xmlns="http://www.w3.org/2000/svg" width="64" height="64" viewBox="0 0 64 64" fill="none"><path d="M23.4873 4.15326C24.1442 3.91439 24.8704 3.95614 25.4956 4.26873C29.8699 6.45586 34.1178 6.45586 38.4921 4.26873C39.1172 3.95615 39.8434 3.91439 40.5003 4.15325L51.8524 8.2813C54.3236 9.17991 56.1586 11.2867 56.7096 13.8578L59.9374 28.921C60.6283 32.1455 54.0736 34.7422 52.0109 36.1184V57.4541C52.0109 58.8599 50.8713 59.9996 49.4655 59.9996H14.5539C13.1481 59.9996 12.0085 58.8599 12.0085 57.4541V36.1184C9.94029 34.745 3.35814 32.1535 4.05082 28.921L7.27865 13.8578C7.8296 11.2867 9.66457 9.17992 12.1357 8.28129L23.4873 4.15326Z" fill="#99E8D4"></path><path fill-rule="evenodd" clip-rule="evenodd" d="M25.3334 18.9999C25.3334 18.0794 25.9967 17.3333 26.8149 17.3333H30V22.6666L32 21.3333L34 22.6666V17.3333H37.1852C38.0034 17.3333 38.6667 18.0794 38.6667 18.9999V28.9999C38.6667 29.9204 38.0034 30.6666 37.1852 30.6666H26.8149C25.9967 30.6666 25.3334 29.9204 25.3334 28.9999V18.9999ZM17.3334 34.9999C17.3334 34.0794 17.9967 33.3333 18.8149 33.3333H22V38.6666L24 37.3333L26 38.6666V33.3333H29.1852C30.0034 33.3333 30.6667 34.0794 30.6667 34.9999V44.9999C30.6667 45.9204 30.0034 46.6666 29.1852 46.6666H18.8149C17.9967 46.6666 17.3334 45.9204 17.3334 44.9999V34.9999ZM34.8149 33.3333C33.9967 33.3333 33.3334 34.0794 33.3334 34.9999V44.9999C33.3334 45.9204 33.9967 46.6666 34.8149 46.6666H45.1852C46.0034 46.6666 46.6667 45.9204 46.6667 44.9999V34.9999C46.6667 34.0794 46.0034 33.3333 45.1852 33.3333H42V38.6666L40 37.3333L38 38.6666V33.3333H34.8149Z" fill="#004F3B"></path><path d="M22 33.3333H26V38.6666L24 37.3333L22 38.6666V33.3333Z" fill="#00C693"></path><path d="M30 17.3333H34V22.6666L32 21.3333L30 22.6666V17.3333Z" fill="#00C693"></path><path d="M38 33.3333H42V38.6666L40 37.3333L38 38.6666V33.3333Z" fill="#00C693"></path></svg> 