<?xml version="1.0" encoding="UTF-8"?> <svg xmlns="http://www.w3.org/2000/svg" width="512" height="512" viewBox="0 0 24 24" fill="none"><g clip-path="url(#clip0_1599_2362)"><path opacity="0.4" fill-rule="evenodd" clip-rule="evenodd" d="M19.9355 14.9792C19.4342 11.043 16.0724 8 12 8C7.92755 8 4.56583 11.043 4.06452 14.9792C1.78357 14.7602 0 12.8384 0 10.5C0 8.49011 1.31768 6.78798 3.13629 6.21034C3.04763 5.91331 3 5.59858 3 5.27273C3 3.46525 4.46525 2 6.27273 2C7.41008 2 8.41192 2.58017 8.99845 3.4607C10.2361 1.38805 12.5014 0 15.0909 0C18.9379 0 22.0693 3.06344 22.1789 6.88389C23.2839 7.70385 24 9.01829 24 10.5C24 12.8384 22.2164 14.7602 19.9355 14.9792Z" fill="#0080AF"></path><path fill-rule="evenodd" clip-rule="evenodd" d="M12 8C16.4183 8 20 11.5817 20 16C20 20.4183 16.4183 24 12 24C7.58172 24 4 20.4183 4 16C4 11.5817 7.58172 8 12 8ZM12.0004 22C12.0025 22 12.0056 21.9998 12.0109 21.9987C12.0168 21.9975 12.0291 21.9945 12.0486 21.9865C12.0881 21.9703 12.1621 21.9317 12.2653 21.8444C12.4809 21.662 12.761 21.3196 13.0396 20.7624C13.2832 20.2751 13.4973 19.6798 13.6611 19H10.3389C10.5027 19.6798 10.7168 20.2751 10.9604 20.7624C11.239 21.3196 11.5191 21.662 11.7347 21.8444C11.8379 21.9317 11.9119 21.9703 11.9514 21.9865C11.9709 21.9945 11.9832 21.9975 11.9891 21.9987C11.9948 21.9999 11.9983 22 12.0004 22ZM10.0354 17C10.0122 16.6763 10 16.3425 10 16C10 15.6575 10.0122 15.3237 10.0354 15H13.9646C13.9878 15.3237 14 15.6575 14 16C14 16.3425 13.9878 16.6763 13.9646 17H10.0354ZM15.7092 19C15.5488 19.7929 15.3266 20.5226 15.0546 21.1653C15.9412 20.6399 16.6809 19.8926 17.1973 19H15.7092ZM17.917 17H15.9691C15.9895 16.6724 16 16.3387 16 16C16 15.6613 15.9895 15.3276 15.9691 15H17.917C17.9716 15.3252 18 15.6593 18 16C18 16.3407 17.9716 16.6748 17.917 17ZM8.03095 17H6.08296C6.0284 16.6748 6 16.3407 6 16C6 15.6593 6.0284 15.3252 6.08296 15H8.03095C8.01052 15.3276 8 15.6613 8 16C8 16.3387 8.01052 16.6724 8.03095 17ZM6.80269 19H8.29076C8.45124 19.7929 8.67343 20.5226 8.94542 21.1653C8.05877 20.6399 7.31905 19.8926 6.80269 19ZM10.3389 13H13.6611C13.4973 12.3202 13.2832 11.7249 13.0396 11.2376C12.761 10.6804 12.4809 10.338 12.2653 10.1556C12.1621 10.0683 12.0881 10.0297 12.0486 10.0135C12.0291 10.0055 12.0168 10.0025 12.0109 10.0013C12.0052 10.0001 12.0021 10 12 10C11.9979 10 11.9948 10.0001 11.9891 10.0013C11.9832 10.0025 11.9709 10.0055 11.9514 10.0135C11.9119 10.0297 11.8379 10.0683 11.7347 10.1556C11.5191 10.338 11.239 10.6804 10.9604 11.2376C10.7168 11.7249 10.5027 12.3202 10.3389 13ZM15.7092 13H17.1973C16.6809 12.1074 15.9412 11.3601 15.0546 10.8347C15.3266 11.4774 15.5488 12.2071 15.7092 13ZM8.94542 10.8347C8.67343 11.4774 8.45124 12.2071 8.29076 13H6.80269C7.31905 12.1074 8.05877 11.3601 8.94542 10.8347Z" fill="#0080AF"></path></g><defs><clipPath id="clip0_1599_2362"><rect width="24" height="24" fill="white"></rect></clipPath></defs></svg> 